<!-- Generator: Adobe Illustrator 25.0.0, SVG Export Plug-In  -->
<svg version="1.1" xmlns="http://www.w3.org/2000/svg" xmlns:xlink="http://www.w3.org/1999/xlink" x="0px" y="0px"
	 width="208.05px" height="62.73px" viewBox="0 0 208.05 62.73" style="overflow:visible;enable-background:new 0 0 208.05 62.73;"
	 xml:space="preserve">
<style type="text/css">
	.st0{fill:#121235;}
</style>
<defs>
</defs>
<g>
	<g>
		<path class="st0" d="M55.44,58.94c-0.3,0-0.6-0.01-0.9-0.02c-0.3-0.01-0.6-0.03-0.91-0.05s-0.65-0.06-1.02-0.11V46.51
			c0.32-0.07,0.66-0.12,1.01-0.17s0.7-0.08,1.05-0.1c0.35-0.02,0.69-0.03,1.03-0.03c2.01,0,3.52,0.52,4.55,1.56s1.54,2.65,1.54,4.81
			c0,1.47-0.24,2.67-0.71,3.6c-0.47,0.94-1.18,1.63-2.12,2.08C58,58.71,56.83,58.94,55.44,58.94z M55.6,58.04
			c1.14,0,2.09-0.19,2.85-0.56c0.76-0.37,1.33-0.96,1.71-1.76c0.38-0.8,0.57-1.85,0.57-3.13c0-1.27-0.19-2.32-0.55-3.13
			c-0.37-0.81-0.93-1.41-1.67-1.79c-0.74-0.38-1.68-0.58-2.81-0.58c-0.33,0-0.66,0.01-1.01,0.05s-0.7,0.08-1.07,0.13v10.65
			c0.31,0.04,0.62,0.07,0.93,0.09C54.86,58.03,55.21,58.04,55.6,58.04z"/>
		<path class="st0" d="M64.24,47.52c-0.24,0-0.42-0.06-0.55-0.19c-0.13-0.13-0.2-0.29-0.2-0.51c0-0.23,0.07-0.4,0.2-0.53
			s0.32-0.19,0.55-0.19c0.24,0,0.42,0.06,0.55,0.19s0.2,0.3,0.2,0.53c0,0.21-0.07,0.38-0.2,0.51
			C64.66,47.46,64.47,47.52,64.24,47.52z M63.74,58.84v-9.16h1v9.16H63.74z"/>
		<path class="st0" d="M69.77,62.73c-0.4,0-0.84-0.04-1.31-0.11s-0.9-0.18-1.3-0.32v-0.88c0.47,0.15,0.92,0.26,1.34,0.33
			c0.43,0.07,0.84,0.11,1.23,0.11c1.02,0,1.77-0.22,2.26-0.67c0.49-0.45,0.74-1.23,0.74-2.35v-0.97h-0.07
			c-0.28,0.32-0.63,0.58-1.07,0.79c-0.44,0.21-0.94,0.31-1.51,0.31c-0.63,0-1.21-0.14-1.74-0.44c-0.53-0.29-0.95-0.77-1.27-1.43
			c-0.32-0.66-0.48-1.55-0.48-2.66c0-1.66,0.38-2.9,1.15-3.7c0.77-0.8,1.88-1.21,3.35-1.21c0.3,0,0.6,0.02,0.91,0.05
			c0.31,0.03,0.61,0.08,0.9,0.13c0.29,0.06,0.57,0.13,0.82,0.21v8.78c0,1.44-0.33,2.47-0.99,3.09
			C72.07,62.42,71.08,62.73,69.77,62.73z M70.32,58.09c0.45,0,0.89-0.1,1.32-0.3c0.43-0.2,0.79-0.5,1.09-0.91v-6.28
			c-0.22-0.06-0.48-0.11-0.78-0.15s-0.61-0.06-0.93-0.06c-1.1,0-1.95,0.31-2.52,0.93c-0.58,0.62-0.87,1.63-0.87,3.02
			c0,0.97,0.12,1.73,0.35,2.27s0.56,0.92,0.96,1.14C69.35,57.98,69.81,58.09,70.32,58.09z"/>
		<path class="st0" d="M76.59,47.52c-0.24,0-0.42-0.06-0.55-0.19c-0.13-0.13-0.2-0.29-0.2-0.51c0-0.23,0.07-0.4,0.2-0.53
			c0.13-0.13,0.32-0.19,0.55-0.19s0.42,0.06,0.55,0.19s0.2,0.3,0.2,0.53c0,0.21-0.07,0.38-0.2,0.51
			C77.01,47.46,76.83,47.52,76.59,47.52z M76.09,58.84v-9.16h1v9.16H76.09z"/>
		<path class="st0" d="M78.18,50.55v-0.86h5.79v0.86H78.18z M82.8,59c-0.89,0-1.59-0.23-2.08-0.69s-0.75-1.2-0.75-2.22v-6.4
			l0.16-3.36h0.85v9.59c0,0.81,0.17,1.37,0.51,1.7s0.84,0.49,1.5,0.49c0.17,0,0.36-0.01,0.54-0.04c0.19-0.03,0.39-0.06,0.61-0.12
			v0.89c-0.23,0.05-0.45,0.09-0.66,0.11S83.03,59,82.8,59z"/>
		<path class="st0" d="M87.45,58.99c-0.84,0-1.5-0.22-1.99-0.65c-0.49-0.43-0.73-1.03-0.73-1.8c0-0.78,0.25-1.39,0.77-1.83
			c0.51-0.44,1.32-0.71,2.43-0.83l2.61-0.29l0.08,0.74l-2.64,0.3c-0.78,0.08-1.35,0.28-1.69,0.58c-0.34,0.3-0.52,0.71-0.52,1.24
			c0,0.56,0.16,0.98,0.48,1.28s0.79,0.44,1.42,0.44c0.45,0,0.89-0.1,1.33-0.29c0.44-0.2,0.84-0.52,1.19-0.97v-4.24
			c0-0.59-0.09-1.05-0.28-1.38c-0.19-0.33-0.46-0.55-0.82-0.69c-0.36-0.13-0.81-0.19-1.34-0.19c-0.34,0-0.73,0.03-1.17,0.1
			c-0.43,0.07-0.87,0.17-1.3,0.33v-0.87c0.37-0.13,0.79-0.23,1.25-0.3c0.46-0.07,0.9-0.11,1.31-0.11c0.72,0,1.33,0.1,1.83,0.29
			c0.5,0.19,0.87,0.52,1.13,0.98c0.25,0.46,0.38,1.09,0.38,1.88v6.15h-0.85l-0.08-1.05h-0.08c-0.3,0.38-0.69,0.67-1.17,0.88
			C88.52,58.88,88.01,58.99,87.45,58.99z"/>
		<path class="st0" d="M93.43,58.84V45.17h1v13.67H93.43z"/>
		<path class="st0" d="M100.75,58.84V46.32h1.18l4.75,10.1h-0.28l4.7-10.1h1.18v12.52h-0.96V47.21h0.36L107,57.13h-0.97l-4.71-9.92
			h0.39v11.64H100.75z"/>
		<path class="st0" d="M118.5,59c-0.9,0-1.66-0.16-2.28-0.48s-1.09-0.83-1.4-1.53c-0.32-0.7-0.48-1.61-0.48-2.74
			c0-1.09,0.15-1.98,0.44-2.68c0.29-0.7,0.71-1.21,1.24-1.54c0.53-0.33,1.16-0.5,1.88-0.5c0.71,0,1.33,0.17,1.84,0.5
			c0.51,0.33,0.9,0.84,1.17,1.54s0.41,1.6,0.41,2.69v0.35h-6.45v-0.76h5.73l-0.26,0.21c0-0.92-0.1-1.65-0.29-2.2
			c-0.19-0.55-0.47-0.94-0.84-1.18c-0.36-0.24-0.8-0.36-1.32-0.36c-0.51,0-0.96,0.12-1.34,0.36c-0.38,0.24-0.67,0.63-0.88,1.18
			c-0.21,0.54-0.31,1.28-0.31,2.2v0.32c0,0.91,0.12,1.64,0.36,2.2c0.24,0.55,0.6,0.95,1.08,1.19c0.48,0.24,1.07,0.36,1.79,0.36
			c0.34,0,0.7-0.03,1.07-0.1c0.37-0.07,0.77-0.16,1.2-0.29v0.87c-0.43,0.13-0.84,0.23-1.22,0.29C119.27,58.97,118.88,59,118.5,59z"
			/>
		<path class="st0" d="M126.1,59c-0.67,0-1.27-0.15-1.81-0.44c-0.54-0.3-0.97-0.78-1.29-1.44c-0.32-0.67-0.48-1.55-0.48-2.66
			c0-1.11,0.17-2.03,0.52-2.75s0.85-1.26,1.52-1.62s1.5-0.53,2.49-0.53c0.28,0,0.55,0.01,0.83,0.04c0.28,0.03,0.54,0.06,0.77,0.1
			v-4.51h1v13.67h-0.86l-0.07-1h-0.08c-0.28,0.33-0.63,0.61-1.07,0.82C127.15,58.89,126.65,59,126.1,59z M126.28,58.11
			c0.45,0,0.88-0.1,1.31-0.3c0.43-0.2,0.79-0.52,1.07-0.96v-6.26c-0.22-0.05-0.48-0.09-0.77-0.13c-0.29-0.03-0.58-0.05-0.86-0.05
			c-1.14,0-2.01,0.31-2.59,0.93c-0.58,0.62-0.88,1.63-0.88,3.02c0,0.97,0.12,1.73,0.35,2.27c0.23,0.54,0.55,0.93,0.96,1.15
			C125.28,58,125.75,58.11,126.28,58.11z"/>
		<path class="st0" d="M132.53,47.52c-0.24,0-0.42-0.06-0.55-0.19c-0.13-0.13-0.2-0.29-0.2-0.51c0-0.23,0.07-0.4,0.2-0.53
			c0.13-0.13,0.32-0.19,0.55-0.19s0.42,0.06,0.55,0.19c0.13,0.13,0.2,0.3,0.2,0.53c0,0.21-0.07,0.38-0.2,0.51
			C132.95,47.46,132.77,47.52,132.53,47.52z M132.03,58.84v-9.16h1v9.16H132.03z"/>
		<path class="st0" d="M137.6,58.99c-0.84,0-1.5-0.22-1.99-0.65c-0.49-0.43-0.73-1.03-0.73-1.8c0-0.78,0.25-1.39,0.77-1.83
			c0.51-0.44,1.32-0.71,2.43-0.83l2.61-0.29l0.08,0.74l-2.64,0.3c-0.78,0.08-1.35,0.28-1.69,0.58c-0.34,0.3-0.52,0.71-0.52,1.24
			c0,0.56,0.16,0.98,0.48,1.28s0.79,0.44,1.42,0.44c0.45,0,0.89-0.1,1.33-0.29c0.44-0.2,0.84-0.52,1.19-0.97v-4.24
			c0-0.59-0.09-1.05-0.28-1.38c-0.19-0.33-0.46-0.55-0.82-0.69c-0.36-0.13-0.81-0.19-1.34-0.19c-0.34,0-0.73,0.03-1.17,0.1
			c-0.43,0.07-0.87,0.17-1.3,0.33v-0.87c0.37-0.13,0.79-0.23,1.25-0.3c0.46-0.07,0.9-0.11,1.31-0.11c0.72,0,1.33,0.1,1.83,0.29
			c0.5,0.19,0.87,0.52,1.13,0.98c0.25,0.46,0.38,1.09,0.38,1.88v6.15h-0.85l-0.08-1.05h-0.08c-0.3,0.38-0.69,0.67-1.17,0.88
			C138.67,58.88,138.16,58.99,137.6,58.99z"/>
		<path class="st0" d="M150.33,58.94c-0.3,0-0.6-0.01-0.9-0.02c-0.3-0.01-0.6-0.03-0.91-0.05s-0.65-0.06-1.02-0.11V46.51
			c0.32-0.07,0.66-0.12,1.01-0.17s0.7-0.08,1.05-0.1c0.35-0.02,0.69-0.03,1.03-0.03c2.01,0,3.52,0.52,4.55,1.56s1.54,2.65,1.54,4.81
			c0,1.47-0.24,2.67-0.71,3.6c-0.47,0.94-1.18,1.63-2.12,2.08C152.9,58.71,151.73,58.94,150.33,58.94z M150.5,58.04
			c1.14,0,2.09-0.19,2.85-0.56c0.76-0.37,1.33-0.96,1.71-1.76c0.38-0.8,0.57-1.85,0.57-3.13c0-1.27-0.19-2.32-0.55-3.13
			c-0.37-0.81-0.93-1.41-1.67-1.79c-0.74-0.38-1.68-0.58-2.81-0.58c-0.33,0-0.66,0.01-1.01,0.05s-0.7,0.08-1.07,0.13v10.65
			c0.31,0.04,0.62,0.07,0.93,0.09C149.76,58.03,150.11,58.04,150.5,58.04z"/>
		<path class="st0" d="M162.29,59c-0.9,0-1.66-0.16-2.28-0.48c-0.62-0.32-1.09-0.83-1.4-1.53c-0.32-0.7-0.48-1.61-0.48-2.74
			c0-1.09,0.15-1.98,0.44-2.68c0.29-0.7,0.71-1.21,1.24-1.54c0.53-0.33,1.16-0.5,1.88-0.5c0.72,0,1.33,0.17,1.84,0.5
			c0.51,0.33,0.9,0.84,1.17,1.54c0.27,0.7,0.41,1.6,0.41,2.69v0.35h-6.45v-0.76h5.73l-0.26,0.21c0-0.92-0.1-1.65-0.29-2.2
			c-0.19-0.55-0.47-0.94-0.84-1.18c-0.36-0.24-0.8-0.36-1.31-0.36c-0.51,0-0.96,0.12-1.34,0.36c-0.38,0.24-0.67,0.63-0.88,1.18
			c-0.21,0.54-0.31,1.28-0.31,2.2v0.32c0,0.91,0.12,1.64,0.36,2.2c0.24,0.55,0.6,0.95,1.08,1.19c0.48,0.24,1.07,0.36,1.78,0.36
			c0.34,0,0.7-0.03,1.07-0.1c0.37-0.07,0.77-0.16,1.2-0.29v0.87c-0.43,0.13-0.84,0.23-1.22,0.29C163.06,58.97,162.67,59,162.29,59z"
			/>
		<path class="st0" d="M168.88,59c-0.44,0-0.86-0.03-1.26-0.09c-0.4-0.06-0.79-0.15-1.18-0.28v-0.85c0.45,0.13,0.87,0.23,1.26,0.29
			c0.39,0.06,0.78,0.08,1.18,0.08c0.85,0,1.46-0.15,1.85-0.45c0.39-0.3,0.58-0.72,0.58-1.26c0-0.47-0.12-0.83-0.36-1.08
			s-0.64-0.43-1.21-0.55l-1.18-0.25c-0.83-0.19-1.42-0.48-1.76-0.89c-0.35-0.41-0.52-0.93-0.52-1.56c0-0.74,0.28-1.36,0.85-1.84
			c0.56-0.49,1.43-0.73,2.61-0.73c0.38,0,0.74,0.02,1.08,0.06c0.34,0.04,0.68,0.11,1,0.2v0.85c-0.37-0.1-0.72-0.17-1.04-0.22
			s-0.67-0.06-1.03-0.06c-0.6,0-1.08,0.08-1.45,0.23c-0.36,0.15-0.62,0.36-0.79,0.61c-0.16,0.26-0.25,0.54-0.25,0.86
			c0,0.41,0.11,0.75,0.33,1.01c0.22,0.27,0.62,0.46,1.18,0.59l1.17,0.24c0.86,0.19,1.46,0.48,1.82,0.88
			c0.35,0.4,0.53,0.93,0.53,1.59c0,0.8-0.29,1.44-0.87,1.91C170.86,58.77,170,59,168.88,59z"/>
		<path class="st0" d="M174.44,47.52c-0.24,0-0.42-0.06-0.55-0.19c-0.13-0.13-0.2-0.29-0.2-0.51c0-0.23,0.07-0.4,0.2-0.53
			c0.13-0.13,0.32-0.19,0.55-0.19s0.42,0.06,0.55,0.19c0.13,0.13,0.2,0.3,0.2,0.53c0,0.21-0.07,0.38-0.2,0.51
			C174.86,47.46,174.68,47.52,174.44,47.52z M173.94,58.84v-9.16h1v9.16H173.94z"/>
		<path class="st0" d="M179.97,62.73c-0.4,0-0.84-0.04-1.31-0.11s-0.9-0.18-1.3-0.32v-0.88c0.47,0.15,0.92,0.26,1.34,0.33
			c0.43,0.07,0.84,0.11,1.23,0.11c1.01,0,1.77-0.22,2.26-0.67c0.49-0.45,0.74-1.23,0.74-2.35v-0.97h-0.07
			c-0.28,0.32-0.63,0.58-1.07,0.79s-0.94,0.31-1.51,0.31c-0.63,0-1.21-0.14-1.74-0.44c-0.53-0.29-0.95-0.77-1.27-1.43
			c-0.32-0.66-0.48-1.55-0.48-2.66c0-1.66,0.38-2.9,1.15-3.7c0.77-0.8,1.88-1.21,3.35-1.21c0.3,0,0.6,0.02,0.91,0.05
			c0.31,0.03,0.61,0.08,0.9,0.13c0.29,0.06,0.57,0.13,0.82,0.21v8.78c0,1.44-0.33,2.47-0.99,3.09
			C182.28,62.42,181.29,62.73,179.97,62.73z M180.52,58.09c0.45,0,0.89-0.1,1.32-0.3c0.43-0.2,0.79-0.5,1.09-0.91v-6.28
			c-0.22-0.06-0.48-0.11-0.78-0.15s-0.61-0.06-0.93-0.06c-1.11,0-1.95,0.31-2.53,0.93c-0.58,0.62-0.87,1.63-0.87,3.02
			c0,0.97,0.12,1.73,0.35,2.27c0.24,0.54,0.56,0.92,0.96,1.14C179.56,57.98,180.02,58.09,180.52,58.09z"/>
		<path class="st0" d="M186.3,58.84v-9.16h0.85l0.08,1.06h0.08c0.38-0.39,0.83-0.69,1.33-0.89c0.5-0.21,1.04-0.31,1.59-0.31
			c0.56,0,1.06,0.1,1.5,0.3c0.44,0.2,0.78,0.54,1.02,0.99c0.25,0.46,0.37,1.08,0.37,1.85v6.15h-1v-6.12c0-0.85-0.19-1.44-0.56-1.77
			c-0.38-0.33-0.88-0.5-1.52-0.5c-0.29,0-0.6,0.04-0.93,0.13c-0.33,0.08-0.65,0.23-0.97,0.42c-0.32,0.2-0.6,0.46-0.85,0.8v7.04
			H186.3z"/>
		<path class="st0" d="M199.04,59c-0.9,0-1.66-0.16-2.28-0.48c-0.62-0.32-1.09-0.83-1.4-1.53c-0.32-0.7-0.48-1.61-0.48-2.74
			c0-1.09,0.15-1.98,0.44-2.68c0.29-0.7,0.71-1.21,1.24-1.54c0.53-0.33,1.16-0.5,1.88-0.5c0.72,0,1.33,0.17,1.84,0.5
			c0.51,0.33,0.9,0.84,1.17,1.54c0.27,0.7,0.41,1.6,0.41,2.69v0.35h-6.45v-0.76h5.73l-0.26,0.21c0-0.92-0.1-1.65-0.29-2.2
			c-0.19-0.55-0.47-0.94-0.84-1.18c-0.36-0.24-0.8-0.36-1.32-0.36s-0.96,0.12-1.34,0.36c-0.38,0.24-0.67,0.63-0.88,1.18
			c-0.21,0.54-0.31,1.28-0.31,2.2v0.32c0,0.91,0.12,1.64,0.36,2.2c0.24,0.55,0.6,0.95,1.08,1.19c0.48,0.24,1.07,0.36,1.79,0.36
			c0.34,0,0.7-0.03,1.07-0.1c0.37-0.07,0.77-0.16,1.2-0.29v0.87c-0.43,0.13-0.84,0.23-1.22,0.29C199.81,58.97,199.42,59,199.04,59z"
			/>
		<path class="st0" d="M203.58,58.84v-9.16h0.85l0.08,1.23h0.08c0.33-0.43,0.74-0.75,1.23-0.98c0.49-0.22,0.99-0.33,1.51-0.33
			c0.14,0,0.27,0,0.38,0.01c0.11,0.01,0.22,0.02,0.34,0.05v0.95c-0.12-0.02-0.25-0.04-0.37-0.04c-0.12,0-0.25,0-0.39,0
			c-0.31,0-0.63,0.05-0.97,0.15c-0.33,0.1-0.66,0.25-0.96,0.46c-0.3,0.21-0.56,0.48-0.78,0.79v6.87H203.58z"/>
	</g>
	<polygon class="st0" points="42.19,60.09 21.22,60.09 6.44,45.26 0,51.71 0,30.14 6.44,24.26 17.12,34.98 21.96,30.14 12.08,20.2 
		12.08,0.34 12.5,0 42.18,30.14 27.62,45.26 	"/>
	<g>
		<path class="st0" d="M52.83,37.93V21.96c0.44-0.09,0.9-0.17,1.39-0.24c0.48-0.07,0.99-0.13,1.52-0.17
			c0.53-0.04,1.08-0.06,1.65-0.06c2.21,0,3.85,0.4,4.94,1.2c1.09,0.8,1.63,2.05,1.63,3.75c0,1.1-0.26,2.02-0.79,2.77
			c-0.52,0.74-1.29,1.3-2.29,1.68c-1,0.38-2.23,0.57-3.68,0.57c-0.41,0-0.78-0.01-1.1-0.03s-0.65-0.04-0.99-0.06v6.58H52.83z
			 M57.25,29.63c1.57,0,2.71-0.26,3.43-0.78c0.72-0.52,1.08-1.32,1.08-2.41c0-0.75-0.15-1.36-0.44-1.82s-0.75-0.81-1.36-1.02
			c-0.61-0.21-1.4-0.32-2.37-0.32c-0.5,0-0.94,0.02-1.33,0.06s-0.76,0.09-1.14,0.15v6.05c0.26,0.02,0.49,0.04,0.71,0.06
			c0.22,0.02,0.44,0.03,0.66,0.03C56.72,29.63,56.97,29.63,57.25,29.63z M62.64,37.93l-5.59-7.61h2.56l5.64,7.61H62.64z"/>
		<path class="st0" d="M68.34,23.64c-0.5,0-0.88-0.12-1.13-0.35s-0.38-0.56-0.38-0.97c0-0.42,0.13-0.75,0.38-0.99
			s0.63-0.35,1.13-0.35c0.51,0,0.89,0.12,1.14,0.35c0.25,0.23,0.38,0.56,0.38,0.99c0,0.41-0.13,0.73-0.38,0.97
			C69.23,23.52,68.85,23.64,68.34,23.64z M67.19,37.93V25.97h2.3v11.96H67.19z"/>
		<path class="st0" d="M77.58,38.15c-1.19,0-2.21-0.22-3.04-0.66s-1.46-1.11-1.9-2.02c-0.43-0.91-0.65-2.08-0.65-3.51
			c0-1.44,0.23-2.61,0.7-3.52c0.46-0.91,1.14-1.58,2.04-2.01c0.89-0.43,1.98-0.65,3.27-0.65c0.44,0,0.87,0.03,1.3,0.08
			c0.42,0.05,0.83,0.13,1.22,0.22v1.89c-0.39-0.09-0.77-0.17-1.14-0.21s-0.74-0.07-1.11-0.07c-0.88,0-1.61,0.14-2.19,0.42
			c-0.58,0.28-1.01,0.73-1.29,1.35c-0.28,0.62-0.42,1.45-0.42,2.48c0,1.06,0.13,1.9,0.4,2.53s0.67,1.09,1.19,1.36
			c0.53,0.28,1.18,0.42,1.96,0.42c0.38,0,0.78-0.04,1.19-0.11s0.88-0.19,1.4-0.34v1.88c-0.46,0.15-0.93,0.27-1.43,0.36
			C78.59,38.11,78.09,38.15,77.58,38.15z"/>
		<path class="st0" d="M85.58,38.13c-1.16,0-2.07-0.3-2.72-0.89c-0.66-0.59-0.98-1.4-0.98-2.43c0-1.06,0.36-1.89,1.08-2.5
			c0.72-0.6,1.87-0.97,3.45-1.11l3-0.3l0.23,1.4l-3.04,0.31c-0.87,0.09-1.49,0.3-1.86,0.62c-0.38,0.33-0.57,0.78-0.57,1.37
			c0,0.59,0.17,1.05,0.52,1.37c0.35,0.32,0.86,0.48,1.53,0.48c0.47,0,0.94-0.09,1.41-0.29c0.47-0.19,0.89-0.51,1.26-0.96v-5.01
			c0-0.67-0.11-1.2-0.32-1.57s-0.54-0.64-0.98-0.79s-1-0.23-1.68-0.23c-0.46,0-0.97,0.04-1.54,0.12c-0.57,0.08-1.14,0.21-1.69,0.4
			v-1.8c0.53-0.18,1.13-0.31,1.77-0.4c0.64-0.09,1.25-0.13,1.81-0.13c1.09,0,2,0.14,2.72,0.42c0.72,0.28,1.26,0.75,1.62,1.41
			s0.53,1.56,0.53,2.71v7.61h-1.9l-0.17-1.29h-0.13c-0.38,0.49-0.87,0.86-1.46,1.11C86.9,38.01,86.27,38.13,85.58,38.13z"/>
		<path class="st0" d="M94.14,37.93V25.97h1.9l0.19,1.58h0.12c0.39-0.57,0.88-1,1.48-1.29c0.6-0.29,1.24-0.43,1.91-0.43
			c0.18,0,0.34,0.01,0.51,0.02c0.16,0.02,0.31,0.04,0.45,0.07v2.1c-0.18-0.03-0.35-0.05-0.53-0.06s-0.36-0.02-0.54-0.02
			c-0.38,0-0.77,0.06-1.17,0.17c-0.4,0.11-0.78,0.29-1.13,0.51c-0.35,0.23-0.65,0.51-0.89,0.85v8.46H94.14z"/>
		<path class="st0" d="M105.94,38.14c-0.87,0-1.67-0.2-2.39-0.59c-0.72-0.4-1.3-1.03-1.73-1.9s-0.65-2.02-0.65-3.46
			c0-1.42,0.23-2.61,0.7-3.56c0.47-0.95,1.16-1.66,2.08-2.14s2.05-0.71,3.4-0.71c0.31,0,0.62,0.01,0.92,0.04
			c0.31,0.03,0.59,0.06,0.85,0.09v-5.75h2.3v17.77h-1.95l-0.14-1.29h-0.13c-0.35,0.44-0.8,0.8-1.36,1.08
			C107.29,38,106.66,38.14,105.94,38.14z M106.53,36.22c0.48,0,0.96-0.1,1.42-0.31c0.46-0.21,0.85-0.53,1.18-0.97v-7.16
			c-0.24-0.06-0.52-0.1-0.84-0.14s-0.64-0.05-0.95-0.05c-1.27,0-2.23,0.34-2.87,1.02s-0.97,1.81-0.97,3.39
			c0,1.08,0.13,1.93,0.38,2.55s0.61,1.04,1.07,1.29S105.94,36.22,106.53,36.22z"/>
		<path class="st0" d="M119.25,38.15c-1.08,0-2.01-0.22-2.81-0.66c-0.79-0.44-1.41-1.11-1.85-2.02c-0.44-0.91-0.66-2.07-0.66-3.5
			c0-1.43,0.21-2.6,0.65-3.51c0.43-0.91,1.05-1.58,1.84-2.02c0.79-0.44,1.74-0.66,2.83-0.66c1.09,0,2.04,0.22,2.83,0.66
			c0.8,0.44,1.41,1.11,1.84,2.02c0.43,0.91,0.65,2.07,0.65,3.5c0,1.42-0.22,2.58-0.65,3.5c-0.44,0.92-1.05,1.59-1.85,2.03
			S120.32,38.15,119.25,38.15z M119.25,36.34c0.62,0,1.15-0.13,1.59-0.4s0.79-0.72,1.03-1.35c0.24-0.63,0.36-1.5,0.36-2.6
			c0-1.11-0.12-1.99-0.36-2.63c-0.24-0.64-0.59-1.09-1.03-1.36s-0.98-0.4-1.59-0.4c-0.62,0-1.15,0.13-1.6,0.4
			c-0.45,0.26-0.79,0.71-1.03,1.35c-0.24,0.63-0.36,1.5-0.36,2.6c0,1.11,0.12,1.99,0.36,2.63s0.58,1.09,1.03,1.36
			C118.09,36.2,118.63,36.34,119.25,36.34z"/>
		<path class="st0" d="M125.62,37.93l5.66-16.27h3.34l5.66,16.27h-2.33l-5.18-15.21h0.32l-5.17,15.21H125.62z M128.87,32.94
			l0.53-1.9h7.12l0.53,1.9H128.87z"/>
		<path class="st0" d="M142.11,37.93V25.97h1.9l0.19,1.58h0.12c0.39-0.57,0.88-1,1.48-1.29c0.6-0.29,1.24-0.43,1.91-0.43
			c0.18,0,0.34,0.01,0.51,0.02c0.16,0.02,0.31,0.04,0.45,0.07v2.1c-0.18-0.03-0.35-0.05-0.53-0.06s-0.36-0.02-0.54-0.02
			c-0.38,0-0.77,0.06-1.17,0.17c-0.4,0.11-0.78,0.29-1.13,0.51c-0.35,0.23-0.65,0.51-0.89,0.85v8.46H142.11z"/>
		<path class="st0" d="M155.12,38.15c-1.32,0-2.42-0.21-3.3-0.64c-0.88-0.42-1.54-1.09-1.99-2.01c-0.44-0.91-0.66-2.1-0.66-3.56
			c0-1.38,0.2-2.52,0.61-3.44c0.41-0.91,0.99-1.6,1.74-2.05s1.66-0.68,2.71-0.68c1.03,0,1.9,0.23,2.61,0.68s1.26,1.14,1.63,2.06
			c0.37,0.92,0.55,2.08,0.55,3.48v0.66h-8.58v-1.45h6.85l-0.44,0.24c0-1.01-0.1-1.82-0.31-2.42c-0.21-0.6-0.51-1.03-0.9-1.29
			c-0.4-0.26-0.88-0.39-1.44-0.39s-1.05,0.13-1.46,0.38c-0.41,0.26-0.72,0.69-0.94,1.29c-0.22,0.6-0.33,1.41-0.33,2.43v0.86
			c0,0.99,0.14,1.78,0.41,2.37c0.27,0.59,0.7,1.01,1.28,1.27c0.58,0.26,1.33,0.38,2.25,0.38c0.45,0,0.93-0.04,1.43-0.12
			c0.5-0.08,1.02-0.19,1.56-0.34v1.8c-0.59,0.16-1.16,0.28-1.69,0.35S155.65,38.15,155.12,38.15z M153.15,24.22l2.4-4.06h2.46
			l-2.75,4.06H153.15z"/>
		<path class="st0" d="M164.21,37.93l-4.43-11.96h2.43l3.64,10.24h-0.23l3.64-10.24h2.29l-4.42,11.96H164.21z"/>
		<path class="st0" d="M176.15,38.13c-1.16,0-2.07-0.3-2.72-0.89c-0.66-0.59-0.98-1.4-0.98-2.43c0-1.06,0.36-1.89,1.08-2.5
			c0.72-0.6,1.87-0.97,3.45-1.11l3-0.3l0.23,1.4l-3.04,0.31c-0.87,0.09-1.49,0.3-1.86,0.62c-0.38,0.33-0.57,0.78-0.57,1.37
			c0,0.59,0.17,1.05,0.52,1.37c0.35,0.32,0.86,0.48,1.53,0.48c0.47,0,0.94-0.09,1.41-0.29c0.47-0.19,0.89-0.51,1.26-0.96v-5.01
			c0-0.67-0.11-1.2-0.32-1.57s-0.54-0.64-0.98-0.79s-1-0.23-1.68-0.23c-0.46,0-0.97,0.04-1.54,0.12c-0.57,0.08-1.14,0.21-1.69,0.4
			v-1.8c0.53-0.18,1.13-0.31,1.77-0.4c0.64-0.09,1.25-0.13,1.81-0.13c1.09,0,2,0.14,2.72,0.42c0.72,0.28,1.26,0.75,1.62,1.41
			s0.53,1.56,0.53,2.71v7.61h-1.9l-0.17-1.29h-0.13c-0.38,0.49-0.87,0.86-1.46,1.11C177.47,38.01,176.83,38.13,176.15,38.13z"/>
		<path class="st0" d="M184.7,37.93V20.16h2.3v17.77H184.7z"/>
		<path class="st0" d="M194.82,38.15c-1.08,0-2.01-0.22-2.81-0.66s-1.41-1.11-1.85-2.02c-0.44-0.91-0.66-2.07-0.66-3.5
			c0-1.43,0.22-2.6,0.65-3.51c0.43-0.91,1.05-1.58,1.84-2.02c0.79-0.44,1.74-0.66,2.83-0.66c1.09,0,2.04,0.22,2.83,0.66
			c0.79,0.44,1.41,1.11,1.84,2.02c0.43,0.91,0.65,2.07,0.65,3.5c0,1.42-0.22,2.58-0.65,3.5c-0.44,0.92-1.05,1.59-1.85,2.03
			S195.9,38.15,194.82,38.15z M194.82,36.34c0.62,0,1.15-0.13,1.59-0.4s0.79-0.72,1.03-1.35c0.24-0.63,0.36-1.5,0.36-2.6
			c0-1.11-0.12-1.99-0.36-2.63c-0.24-0.64-0.59-1.09-1.03-1.36s-0.98-0.4-1.59-0.4c-0.62,0-1.15,0.13-1.59,0.4
			c-0.45,0.26-0.79,0.71-1.03,1.35c-0.24,0.63-0.36,1.5-0.36,2.6c0,1.11,0.12,1.99,0.36,2.63s0.58,1.09,1.03,1.36
			C193.67,36.2,194.21,36.34,194.82,36.34z"/>
	</g>
</g>
</svg>
