<!-- Generator: Adobe Illustrator 25.0.1, SVG Export Plug-In  -->
<svg version="1.1" xmlns="http://www.w3.org/2000/svg" xmlns:xlink="http://www.w3.org/1999/xlink" x="0px" y="0px"
	 width="646.77px" height="214.3px" viewBox="0 0 646.77 214.3" style="overflow:visible;enable-background:new 0 0 646.77 214.3;"
	 xml:space="preserve">
<defs>
</defs>
<path d="M637.44,107.1c-3.73-1.64-7.96-2.65-12.04-2.94c-20.42-1.46-40.36,1.58-60.04,6.91c-6.54,1.77-13.1,3.48-19.73,4.87
	c-9.78,2.05-17.97,6.57-20.58,16.61c-1.84,7.08-1.37,14.75-2.18,22.12c-0.24,2.22-0.81,5.85-2.07,6.27
	c-7.37,2.43-14.94,4.37-22.56,5.91c-3.62,0.73-4.73-1.79-4.53-5.34c0.2-3.38-0.35-6.81-0.48-10.23c-0.06-1.63-0.08-3.3,0.18-4.91
	c0.76-4.57,1.72-9.11,2.52-13.68c1.49-8.51,2.92-17.04,4.38-25.56c2.83-16.4,4.72-32.89,4.37-49.58c-0.12-5.41-3.54-8.46-7.65-10.86
	c-2.81-1.65-5.8-1.31-6.88,2.23c-1.4,4.57-2.92,9.27-3.19,13.99c-1.17,20.54-4.65,40.62-10.7,60.26c-1.5,4.9-3.98,5.79-8.07,2.99
	c-12.54-8.59-25.11-13.64-41.62-12.14c-24.26,2.2-42.56,26.09-42.47,47.63c-0.05,5.03,2.11,12.43,5.92,16.23
	c5.36,5.36,12.3,9.99,19.42,12.54c7.97,2.87,16.88,3.32,25.43,4.37c5.76,0.7,11.61,0.81,17.42,0.86c5.01,0.04,7.04,2.97,8.08,7.23
	c3.22,13.12-0.09,9.97,13.54,11.31c0.33,0.04,0.67-0.01,1,0.03c4.76,0.59,7.74-1.95,9.23-5.99c1.19-3.22,1.64-6.73,2.21-10.14
	c0.59-3.53,1.77-6.28,5.71-7.26c9.46-2.35,18.82-5.13,28.32-7.32c11-2.53,22.1-4.58,33.15-6.89c4.2-0.87,8.41-1.77,12.57-2.84
	c9.61-2.47,19.19-5.07,28.81-7.55c0.74-0.19,1.82-0.11,2.41,0.3c2.93,2.05,4.55-0.06,6.38-1.77c2.29-2.13,4.38-4.63,7.02-6.19
	c4.67-2.77,9.82-4.72,14.51-7.44c4.3-2.49,8.11-5.83,12.43-8.3c7.22-4.12,8.65-10.77,9.06-18.23
	C647.15,116.78,644.91,110.37,637.44,107.1z M450.64,175.09c-6.7,0.12-18.2-0.46-27.01-2.29c-4.71-0.98-9.22-3.58-13.45-6.06
	c-4.36-2.55-5.1-7.34-3.57-11.5c4.71-12.73,13.16-22.13,29.55-20.63c14.57,1.32,26.73,12.93,28.03,27.33
	C465.19,173,462.8,175.32,450.64,175.09z M605.76,133.99c-7.15,2.99-14.41,5.72-21.68,8.4c-7.11,2.61-14.28,5.06-21.45,7.51
	c-1.24,0.43-2.6,0.5-3.97,0.75c-1.6-0.27-3.46-0.14-4.82-0.9c-2.26-1.28-6.04-3.31-5.89-4.67c0.28-2.64,2.3-6.29,4.57-7.28
	c5.84-2.54,12.11-4.47,18.4-5.51c11.1-1.83,22.33-2.9,33.53-4.03c1.46-0.15,3.08,1.25,4.63,1.93
	C607.98,131.49,607.15,133.41,605.76,133.99z"/>
<path d="M168.13,17.6c-2.06-2.34-4.87-3.89-7.69-5.24c-16.37-7.83-34.76-10.32-52.87-11.45c-5.28-0.33-10.56-0.61-15.85-0.77
	c-13.53-0.4-27.16-0.03-40.53,2.31c-12.07,2.1-24.81,5.59-35.55,11.6c-3.82,2.14-7.45,4.72-10.23,8.1
	c-4.46,5.43-6.08,13.72-5.16,20.62c0.84,6.31,4.45,11.8,10.54,14.1c3.24,1.22,6.4,0.79,7.37-3.3c0.83-3.52,1.6-7.12,1.81-10.71
	c0.71-11.59,9.88-17.68,20.15-20.22c8.54-2.12,17.25-3.46,26.01-4.24c11.59-1.03,23.85-1.43,35.47-0.67
	c2.52,0.17,5.04,0.27,7.55,0.37c8.65,0.33,17.25,0.55,25.74,2.86c4.51,1.23,9.93,2.82,13.24,6.35c3.29,3.51,0.53,6.82-2.77,9.05
	c-8.1,5.48-16.38,10.83-25.08,15.25c-10.06,5.1-20.66,9.13-31.03,13.64c-0.9,0.39-11.92,6.64-17.91,5.48
	c-5.59-1.08-11.07-1.66-13.63,6.18c-1.41,4.33-30.56,15.72-37.57,20.66c-4.57,3.21-7.84,7.53-7.17,13.88
	c0.87,8.21,5.92,13.61,12.13,17.86c5.42,3.71,11.5,6.45,17.32,9.58c4.64,2.5,4.9,6.07,3.07,10.57c-1.3,3.19-2.76,6.62-2.77,9.95
	c-0.01,2.79,1.23,6.73,3.28,8.05c1.99,1.28,5.98,0.54,8.61-0.51c4.71-1.89,6.44-6.27,7.37-11.1c1.51-7.92,3.8-8.77,11.37-6.76
	c8.91,2.36,17.92,4.33,26.93,6.23c2.44,0.51,28.01,4.25,28.01,5.05c4.27,0.77,8.66,1.55,12.92,0.72c0.38-0.07,0.77-0.16,1.08-0.39
	c0.47-0.36,0.67-0.99,0.68-1.58c0.05-2.44-2.31-4.16-4.44-5.34c-12.11-6.71-25.47-9.34-38.61-13.21
	c-8.26-2.44-16.43-5.18-24.69-7.63c-7.03-2.08-9.18-5.55-7.39-12.71c1.53-6.13,3.25-12.22,4.74-18.36
	c1.15-4.78,3.34-8.67,8.03-10.73c5.9-2.58,11.92-4.92,17.7-7.76c14.73-7.24,29.41-14.59,44.01-22.11
	c10.83-5.57,19.56-13.59,26.14-23.9C171.76,32.21,172.32,22.34,168.13,17.6z M51.21,111.74c-0.66,3-1.34,6.01-2.13,9.56
	c-2.01-0.66-3.79-1.01-5.32-1.82c-2.51-1.31-6.09-2.11-5.04-6.16c0.8-3.1,8.38-7.32,10.87-6.11c0.9,0.43,1.31,1.98,1.8,3.08
	C51.56,110.67,51.32,111.26,51.21,111.74z"/>
<path d="M396.05,98.79c-0.04-0.03-0.07-0.05-0.11-0.08c-0.42-0.27-0.93-0.39-1.44-0.44c-1.1-0.12-2.23,0.01-3.27,0.39
	c-1.33,0.47-2.48,1.32-3.62,2.15c-2.27,1.66-11.33,14.73-15.15,18.19c-4.42,4-6.56,4.43-10.98,7.42c-1.56,1.05,0.82-3.92-7.07-2.61
	c-0.71,13.78-2.41,48.11-7.87,59.48c-1.67,5-0.43,9.04,0.83,11.2c4.92,8.41,12.39,7.53,18.73,0.32c1.51-1.71,1.71-5.34,2.1-7.45
	c0.91-4.8,1.59-9.64,2.25-14.47c0.73-5.4,1.4-10.81,2.06-16.21c0.29-2.37,0.57-4.74,0.85-7.11c0.34-2.87,0.42-5.94,1.15-8.74
	c0.11-0.43,0.24-0.84,0.41-1.25c0.55-1.35,1.46-2.52,2.41-3.63c3.17-3.69,14.19-18.58,16.3-22.53c2.03-3.82,4.7-8.05,3.59-12.57
	C397.03,100.06,396.69,99.26,396.05,98.79z"/>
<path d="M346.3,164.93c-0.54-2.76-1.19-5.51-1.78-8.26c-0.77-3.55-1.53-7.1-2.3-10.65c-0.45-2.09-0.9-4.17-1.35-6.26
	c-0.58-2.71-1.17-5.43-2.17-8.01c-1.95-5.02-5.06-9.09-10.31-10.81c-7.18-2.36-15,0.1-22.09,1.72c-7.87,1.79-15.64,3.96-23.3,6.52
	c-5.51,1.83-11,3.88-16.02,6.81c-5.58,3.26-11.12,8.04-14.26,13.78c-3.76,6.89-1.64,15.57,1.88,22.11c0.59,1.09,1.25,2.17,2.22,2.94
	c1.65,1.33,3.94,1.55,6.06,1.44c10.34-0.54,20.95-0.65,31.22-2.26c4.41-0.69,8.78-1.72,12.98-3.24c2.15-0.77,4.25-1.68,6.28-2.72
	c1.64-0.85,3.82-3,5.77-2.55c1.9,0.43,2.99,3.42,3.75,4.91c9.38,18.39,23.78,12.92,24.49-0.86
	C347.44,168.31,346.56,166.23,346.3,164.93z M309.38,147.27c-0.21,0.26-0.43,0.5-0.67,0.72c-8.88,8.15-19.58,12.13-31,13.14
	c-0.44,0.03-0.89,0.02-1.33-0.05c-4.87-0.79-6.51-2.95-3.78-7.39c0.77-1.25,1.46-3.03,2.62-3.5c9.94-4.01,19.9-8.03,30.07-11.4
	c0.45-0.15,0.96-0.11,1.51,0.05C310.37,139.87,311.66,144.34,309.38,147.27z"/>
<path d="M199.6,189.04c-3.8-0.79-7.58-1.79-11.2-3.22c-10.29-4.08-15.21-17.78-14.3-28.1c0.46-5.24,1.64-10.61,4.26-15.22
	c2.77-4.86,7.05-8.67,11.54-12.01c5.39-4.01,11.2-7.45,17.3-10.27c3.8-1.76,7.25-1.78,10.97,0.29c4.63,2.57,4.06,5.23-0.28,8.23
	c-7.63,5.29-15.5,10.42-22.3,16.68c-7.25,6.68-5.95,19.8,2.58,25.21c6.73,4.26,14.29,5.63,22.49,4.07
	c7.96-1.51,16.1-2.35,24.19-2.69c0.53-0.02,1.07,0.08,1.6,0.26c3.94,1.32,5.24,6.47,2.2,9.3c-0.34,0.32-0.72,0.58-1.12,0.74
	c-5.41,2.21-10.81,4.47-16.44,6.07c-5.84,1.66-11.56,2.2-17.6,2.14C213.76,190.87,200.67,189.26,199.6,189.04z"/>
<path d="M162.06,138.34c0,9.76,0.06,19.52-0.03,29.28c-0.03,3.45-1.99,5.43-5.42,6.14c-3.5,0.73-5.87-0.58-7.31-3.66
	c-0.97-2.08-2.21-4.22-2.42-6.42c-0.85-8.58-1.27-17.21-2-25.81c-0.36-4.26-1.05-8.48-1.6-12.72c-0.96-7.53,4.85-13.32,12.1-11.6
	c1.7,0.4,3.51,2.54,4.25,4.31c1.33,3.16,2.24,6.6,2.68,10.01c0.44,3.44,0.1,6.97,0.1,10.47
	C162.3,138.33,162.18,138.33,162.06,138.34z"/>
<path d="M627.22,177.51c2.75-1.8,5.47-3.65,8.27-5.37c0.99-0.61,2.62,0.66,4.7,3.4c2.12,2.79,3.05,5.02,2.97,6.79
	c-0.06,1.19,0.02,2.62-0.48,3.21c-1.95,2.3-4.15,4.24-6.17,6.44c-1,1.09-9.12,2.08-12.61-4.31c-0.82-1.5-1.21-3.4-1.12-4.35
	c0.16-1.7,0.63-3.09,1.35-4.09c0.73-1,1.91-1.37,2.9-2.01C627.09,177.31,627.16,177.41,627.22,177.51z"/>
</svg>
